HIERARCHY
ROOT Hips
{
  OFFSET 52.3662 95.7348 31.631
  CHANNELS 6 Xposition Yposition Zposition Zrotation Xrotation Yrotation
  JOINT spine
  {
    OFFSET 0 7.96568 0.458067
    CHANNELS 3 Zrotation Xrotation Yrotation
    JOINT spine1
    {
      OFFSET 0 10.2431 0
      CHANNELS 3 Zrotation Xrotation Yrotation
      JOINT spine2
      {
        OFFSET 0 9.81475 0
        CHANNELS 3 Zrotation Xrotation Yrotation
        JOINT Neck
        {
          OFFSET 0 25.1986 1.20138
          CHANNELS 3 Zrotation Xrotation Yrotation
          JOINT Head
          {
            OFFSET 0 7.61315 0
            CHANNELS 3 Zrotation Xrotation Yrotation
            End Site
            {
              OFFSET 0 18.4281 -6.07733
            }
          }
        }
        JOINT RightShoulder
        {
          OFFSET -4.1327 10.5992 -0.575451
          CHANNELS 3 Zrotation Xrotation Yrotation
          JOINT RightArm
          {
            OFFSET 0 13.9018 0
            CHANNELS 3 Zrotation Xrotation Yrotation
            JOINT RightArmRoll
            {
              OFFSET 0 7.01789 0
              CHANNELS 3 Zrotation Xrotation Yrotation
              JOINT RightForeArm
              {
                OFFSET 0 20.4406 0
                CHANNELS 3 Zrotation Xrotation Yrotation
                JOINT RightForeArmRoll
                {
                  OFFSET 0 7.87516 0
                  CHANNELS 3 Zrotation Xrotation Yrotation
                  JOINT RightHand
                  {
                    OFFSET 0 15.8037 0
                    CHANNELS 3 Zrotation Xrotation Yrotation
                    End Site
                    {
                      OFFSET 0 0 0
                    }
                  }
                }
              }
            }
          }
        }
        JOINT LeftShoulder
        {
          OFFSET 4.1327 10.5992 -0.575451
          CHANNELS 3 Zrotation Xrotation Yrotation
          JOINT LeftArm
          {
            OFFSET 0 13.9018 0
            CHANNELS 3 Zrotation Xrotation Yrotation
            JOINT LeftArmRoll
            {
              OFFSET 0 7.01788 0
              CHANNELS 3 Zrotation Xrotation Yrotation
              JOINT LeftForeArm
              {
                OFFSET 0 20.4406 0
                CHANNELS 3 Zrotation Xrotation Yrotation
                JOINT LeftForeArmRoll
                {
                  OFFSET 0 7.87516 0
                  CHANNELS 3 Zrotation Xrotation Yrotation
                  JOINT LeftHand
                  {
                    OFFSET 0 15.8037 0
                    CHANNELS 3 Zrotation Xrotation Yrotation
                    End Site
                    {
                      OFFSET 0 0 0
                    }
                  }
                }
              }
            }
          }
        }
      }
    }
  }
  JOINT RightUpLeg
  {
    OFFSET -7.06048 -1.2947 -1.0861
    CHANNELS 3 Zrotation Xrotation Yrotation
    JOINT RightUpLegRoll
    {
      OFFSET 0 18.5308 0
      CHANNELS 3 Zrotation Xrotation Yrotation
      JOINT RightLeg
      {
        OFFSET 0 -22.9476 0
        CHANNELS 3 Zrotation Xrotation Yrotation
        JOINT RightLegRoll
        {
          OFFSET 0 23.0226 0
          CHANNELS 3 Zrotation Xrotation Yrotation
          JOINT RightFoot
          {
            OFFSET 0 19.1625 0
            CHANNELS 3 Zrotation Xrotation Yrotation
            JOINT RightToeBase
            {
              OFFSET 0 16.0188 0
              CHANNELS 3 Zrotation Xrotation Yrotation
              End Site
              {
                OFFSET 0.00678979 7.75782 -0.894207
              }
            }
          }
        }
      }
    }
  }
  JOINT LeftUpLeg
  {
    OFFSET 7.06048 -1.2947 -1.0861
    CHANNELS 3 Zrotation Xrotation Yrotation
    JOINT LeftUpLegRoll
    {
      OFFSET 0 18.5309 0
      CHANNELS 3 Zrotation Xrotation Yrotation
      JOINT LeftLeg
      {
        OFFSET 0 22.9475 0
        CHANNELS 3 Zrotation Xrotation Yrotation
        JOINT LeftLegRoll
        {
          OFFSET 0 23.2355 0
          CHANNELS 3 Zrotation Xrotation Yrotation
          JOINT LeftFoot
          {
            OFFSET 0 18.9496 0
            CHANNELS 3 Zrotation Xrotation Yrotation
            JOINT LeftToeBase
            {
              OFFSET 0 16.0188 0
              CHANNELS 3 Zrotation Xrotation Yrotation
              End Site
              {
                OFFSET -0.0304289 7.75781 -0.894207
              }
            }
          }
        }
      }
    }
  }
}
MOTION
Frames: 5
Frame Time: 0.00208333
52.3885 79.2607 3.85028 -1.60955 30.0654 10.4359 -0.312751 0.642312 -0.183163 -0.624008 5.28826 -0.322082 -0.621298 6.93325 -0.312021 -1.43575 13.2712 -2.56669 -0.161103 16.4068 -3.02286 63.7785 -2.1948 -1.84012 110.308 29.4827 -12.8126 3.97569e-015 -3.18055e-015 -6.36111e-015 18.8714 41.2398 -9.05495 5.65355e-007 2.91616e-006 -3.00177 8.02888 -4.95115 0.697588 -67.851 -2.76076 2.50423 -114.936 35.836 16.8591 -5.11871e-015 0 7.95139e-016 -18.0665 38.0272 7.63826 5.51058e-006 5.83625e-006 3.00777 -8.02888 -4.95135 -0.697657 126.045 74.2206 47.1371 180 1.52585e-005 179.649 176.991 59.0129 179.065 3.03593e-006 -2.08892e-006 0.376539 -15.831 72.2773 23.0643 8.13554 25.2335 -3.48631 -173.291 79.4174 -3.27516 4.54188e-006 -4.6773e-006 -0.546774 -2.96418 -55.9762 0.227487 -5.18701e-006 -3.98899e-006 -0.547441 15.2734 70.0289 -21.0821 -8.13531 25.2327 3.48723 
52.3873 79.412 3.9742 -1.60348 29.9355 10.4243 -0.311134 0.627839 -0.183284 -0.620699 5.25932 -0.322794 -0.617973 6.90431 -0.312787 -1.41664 13.1754 -2.54514 -0.160364 16.5991 -2.99458 63.8261 -2.16627 -1.82848 110.323 29.5379 -12.6145 1.03368e-014 -6.36111e-015 -1.27222e-014 18.8076 40.6908 -8.89784 5.65355e-007 2.91616e-006 -3.00177 8.02888 -4.95115 0.697588 -67.8076 -2.78716 2.51388 -115.197 35.9651 16.6567 -1.83876e-015 -1.59028e-015 3.97569e-016 -17.8393 37.2872 7.38632 5.51058e-006 5.83625e-006 3.00777 -8.02888 -4.95135 -0.697657 127.188 73.9746 45.9915 180 1.52585e-005 179.647 176.915 58.7609 179.119 3.03593e-006 -2.08892e-006 0.374504 -15.9036 72.2975 23.0917 8.13554 25.2335 -3.48631 -173.483 79.0296 -3.04632 4.54188e-006 -4.6773e-006 -0.547751 -2.95438 -55.7223 0.228933 -5.18701e-006 -3.98899e-006 -0.543864 15.3031 70.0366 -21.0901 -8.13531 25.2327 3.48723 
52.288 79.6244 4.1451 -1.59751 29.7948 10.405 -0.309344 0.615231 -0.182218 -0.617021 5.23409 -0.321214 -0.614307 6.87909 -0.311265 -1.39735 13.101 -2.52802 -0.160897 16.731 -2.97089 63.8713 -2.14182 -1.81893 110.346 29.5965 -12.4207 3.26007e-014 7.95139e-015 -1.27222e-014 18.741 40.1381 -8.74007 5.65355e-007 2.91616e-006 -3.00177 8.02888 -4.95115 0.697588 -67.7773 -2.80798 2.52184 -115.439 36.0931 16.4437 -7.35503e-015 0 7.95139e-016 -17.6029 36.5393 7.1348 5.51058e-006 5.83625e-006 3.00777 -8.02888 -4.95135 -0.697657 128.354 73.7212 44.8254 180 1.52585e-005 179.644 176.843 58.5033 179.171 3.03593e-006 -2.08892e-006 0.372623 -15.9757 72.3147 23.1164 8.13554 25.2335 -3.48631 -173.612 78.627 -2.88039 4.54188e-006 -4.6773e-006 -0.548761 -2.94536 -55.4658 0.230576 -5.18701e-006 -3.98899e-006 -0.540266 15.3334 70.0445 -21.0982 -8.13531 25.2327 3.48723 
52.3128 79.7518 4.24756 -1.5924 29.6437 10.3793 -0.307334 0.604271 -0.180071 -0.612869 5.21216 -0.317572 -0.610194 6.85716 -0.307685 -1.37688 13.0428 -2.51458 -0.163573 16.8181 -2.95067 63.9153 -2.1203 -1.81099 110.376 29.6576 -12.231 -7.95139e-015 -9.54166e-015 6.36111e-015 18.6724 39.5805 -8.58072 5.65355e-007 2.91616e-006 -3.00177 8.02888 -4.95115 0.697588 -67.7552 -2.82513 2.52867 -115.67 36.2206 16.2225 -1.15295e-014 1.59028e-015 1.19271e-015 -17.3545 35.7778 6.87966 5.51058e-006 5.83625e-006 3.00777 -8.02888 -4.95135 -0.697657 129.539 73.4595 43.6438 180 1.52585e-005 179.64 176.774 58.2403 179.22 3.03593e-006 -2.08892e-006 0.37087 -16.0476 72.3292 23.1385 8.13554 25.2335 -3.48631 -173.687 78.2105 -2.76822 4.54188e-006 -4.6773e-006 -0.5498 -2.93645 -55.2066 0.232763 -5.18701e-006 -3.98899e-006 -0.53664 15.3637 70.0521 -21.1062 -8.13531 25.2327 3.48723 
52.2917 79.918 4.37905 -1.58812 29.4833 10.3479 -0.305133 0.59475 -0.176974 -0.608309 5.19311 -0.31212 -0.605696 6.8381 -0.302299 -1.35536 12.9986 -2.50442 -0.168072 16.8655 -2.93356 63.9581 -2.10163 -1.80458 110.412 29.7211 -12.045 -1.59028e-015 -4.77083e-015 3.18055e-015 18.6019 39.0186 -8.42023 5.65355e-007 2.91616e-006 -3.00177 8.02888 -4.95115 0.697588 -67.7405 -2.83898 2.53445 -115.89 36.3473 15.9941 -1.15295e-014 0 1.39149e-015 -17.0963 35.0054 6.62251 5.51058e-006 5.83625e-006 3.00777 -8.02888 -4.95135 -0.697657 130.734 73.1893 42.4548 180 1.52585e-005 179.636 176.708 57.9724 179.266 3.03593e-006 -2.08892e-006 0.369228 -16.1191 72.341 23.1583 8.13554 25.2335 -3.48631 -173.718 77.7819 -2.69974 4.54188e-006 -4.6773e-006 -0.550865 -2.92767 -54.9449 0.2354 -5.18701e-006 -3.98899e-006 -0.532996 15.3939 70.0594 -21.1139 -8.13531 25.2327 3.48723 
